<?xml version="1.0" encoding="UTF-8"?>
<svg id="Layer_3" data-name="Layer 3" xmlns="http://www.w3.org/2000/svg" viewBox="0 0 512 512">
  <defs>
    <style>
      .cls-1 {
        fill: aqua;
      }
    </style>
  </defs>
  <path class="cls-1" d="M276.87,61.85v122.82s0,0,0,0v13.07l114.42,47.27v16.53s-114.42-37.91-114.42-37.91v51.33s0,.75,0,.75c0,24.05.15,45.54.04,64.76v.88h0c0,.34,0,.69,0,1.03h.01v1.01s-.02,0-.02,0c-.09,11.47-.28,22.12-.67,32-.79,19.93-1.15,36.53-1.15,50.9,0,0,0,0,0,.01v.14h0c0,6.5-.64,13.13-1.67,19.65l19.47,15.66v13.37h-26.46,0s0,.03-.01.04h0s-.2.61-.2.61c0,0,0,0,0,0-.04.12-.08.25-.12.37-.05.14-.09.28-.14.42-.14.43-.28.86-.42,1.28-.02.07-.04.13-.06.2h0c-4.76,14.51-9.48,24.43-9.48,24.43,0,0-5.04-10.6-9.96-25.91-.04-.14-.09-.28-.13-.42-.04-.13-.08-.25-.12-.37,0,0,0,0,0,0l-.07-.21s-.02-.07-.03-.1h0s-.1-.31-.1-.31h0s0-.03-.01-.05h0s-26.46,0-26.46,0v-13.37l16.24-13.06v-.27h.33l2.9-2.34c-1.03-6.51-1.66-13.15-1.67-19.65h0v-.15h0c0-14.37-.36-30.98-1.15-50.91-.39-9.88-.58-20.53-.67-32h-.02v-1.01h.01c0-.34,0-.69,0-1.03h0v-.87c-.11-19.22.04-40.71.04-64.76v-52.08s-114.42,37.91-114.42,37.91v-16.53l114.42-47.28v-107.69h0v-27.96h0v-.24s-.88-36.93,20.87-55.36c21.76,18.43,20.87,55.36,20.87,55.36Z"/>
  <path d="M256,6.49c21.76,18.43,20.87,55.36,20.87,55.36v122.82s0,0,0,0v13.07l114.42,47.27v16.53s-114.42-37.91-114.42-37.91v51.33s0,.75,0,.75c0,24.05.15,45.54.04,64.76v.88h0c0,.34,0,.69,0,1.03h.01v1.01s-.02,0-.02,0c-.09,11.47-.28,22.12-.67,32-.79,19.93-1.15,36.53-1.15,50.9,0,0,0,0,0,.01v.14h0c0,6.5-.64,13.13-1.67,19.65l19.47,15.66v13.37h-26.46,0s0,.03-.01.04h0s-.2.61-.2.61c0,0,0,0,0,0,0,0,0,0,0,0-.04.12-.08.25-.12.37-.05.14-.09.28-.14.42-.14.43-.28.86-.42,1.28-.02.07-.04.13-.06.2h0c-4.76,14.51-9.48,24.43-9.48,24.43,0,0-5.04-10.6-9.96-25.91-.04-.14-.09-.28-.13-.42-.04-.13-.08-.25-.12-.37,0,0,0,0,0,0,0,0,0,0,0,0l-.07-.21s-.02-.07-.03-.1h0s-.1-.31-.1-.31h0s0-.03-.01-.05h0s-26.46,0-26.46,0v-13.37l16.24-13.06v-.27h.33l2.9-2.34c-1.03-6.51-1.66-13.15-1.67-19.65h0v-.15h0c0-14.37-.36-30.98-1.15-50.91-.39-9.88-.58-20.53-.67-32h-.02v-1.01h.01c0-.34,0-.69,0-1.03h0v-.87c-.11-19.22.04-40.71.04-64.76v-52.08s-114.42,37.91-114.42,37.91v-16.53l114.42-47.28v-107.69h0v-27.96h0v-.24s-.88-36.93,20.87-55.36M276.91,342.37h0M256,3.99c-.57,0-1.15.2-1.62.59-22.27,18.87-21.8,55.33-21.76,57.3v134.19l-112.88,46.64c-.94.39-1.55,1.3-1.55,2.31v16.53c0,.8.39,1.56,1.04,2.03.43.31.94.47,1.46.47.26,0,.53-.04.79-.13l111.14-36.82v47.86s0,.75,0,.75c0,9.12-.02,17.87-.04,26.26-.03,13.66-.07,26.57,0,38.51v.86c0,.06,0,.11,0,.17v.28s0,.37,0,.37c0,.07,0,.14,0,.21v1.01c0,.11,0,.22.02.33.1,12.62.31,22.73.67,31.78.77,19.48,1.14,36.1,1.14,50.8v.15s0,.06,0,.09c.01,5.76.51,11.98,1.48,18.52l-1.2.97c-.68.18-1.24.64-1.56,1.25l-15.59,12.54c-.59.47-.93,1.19-.93,1.95v13.37c0,1.38,1.12,2.5,2.5,2.5h24.64c4.88,15.14,9.78,25.5,9.99,25.93.41.87,1.29,1.43,2.26,1.43s1.84-.55,2.26-1.43c.2-.41,4.84-10.23,9.6-24.73l.05-.16c.12-.36.23-.7.34-1.04h24.64c1.38,0,2.5-1.12,2.5-2.5v-13.37c0-.76-.34-1.47-.93-1.95l-18.35-14.76c.97-6.53,1.47-12.76,1.48-18.52,0-.03,0-.05,0-.08v-.14c0-14.72.37-31.34,1.14-50.82.36-9.05.57-19.15.67-31.78.01-.11.02-.21.02-.32v-.89s0-.08,0-.11c0-.08,0-.16-.01-.24v-.32s0-.3,0-.3c0-.06,0-.11,0-.17v-.88c.07-11.93.04-24.83,0-38.49-.02-8.4-.04-17.15-.04-26.27v-.75s0-47.86,0-47.86l111.14,36.82c.26.09.52.13.79.13.52,0,1.03-.16,1.46-.47.65-.47,1.04-1.22,1.04-2.03v-16.53c0-1.01-.61-1.92-1.55-2.31l-112.88-46.64V61.88c.04-1.97.52-38.43-21.76-57.3-.47-.4-1.04-.59-1.62-.59h0Z"/>
</svg>