<?xml version="1.0" encoding="UTF-8"?>
<svg id="Layer_1" data-name="Layer 1" xmlns="http://www.w3.org/2000/svg" viewBox="0 0 512 512">
  <defs>
    <style>
      .cls-1 {
        fill: #fff;
      }
    </style>
  </defs>
  <path class="cls-1" d="M289.5,88.99c36.87-36.87,96.63-36.87,133.5,0,36.86,36.87,36.86,96.63,0,133.5l-52.77,52.77c-36.87,36.87-96.63,36.87-133.5,0-4.9-4.9-9.14-10.2-12.72-15.77-5.24-8.15-16.1-10.51-24.25-5.27-8.15,5.24-10.51,16.1-5.27,24.25,4.93,7.67,10.74,14.92,17.43,21.6,50.57,50.57,132.56,50.57,183.12,0l52.77-52.77c50.57-50.57,50.57-132.56,0-183.12-50.57-50.57-132.56-50.57-183.12,0l-52.77,52.77c-6.85,6.85-6.85,17.96,0,24.81,6.85,6.85,17.96,6.85,24.81,0l52.77-52.77Z"/>
  <path class="cls-1" d="M222.5,423.01c-36.87,36.87-96.63,36.87-133.5,0-36.87-36.86-36.87-96.63,0-133.5l52.77-52.77c36.87-36.87,96.63-36.87,133.5,0,4.9,4.9,9.14,10.19,12.72,15.77,5.24,8.15,16.1,10.51,24.25,5.27,8.15-5.24,10.51-16.1,5.27-24.25-4.93-7.67-10.74-14.92-17.43-21.6-50.57-50.57-132.56-50.57-183.12,0l-52.77,52.77c-50.57,50.57-50.57,132.56,0,183.13,50.57,50.57,132.56,50.57,183.12,0l52.77-52.77c6.85-6.85,6.85-17.96,0-24.82-6.85-6.85-17.96-6.85-24.81,0l-52.77,52.77Z"/>
</svg>