<?xml version="1.0" encoding="UTF-8"?>
<svg id="Layer_2" data-name="Layer 2" xmlns="http://www.w3.org/2000/svg" viewBox="0 0 512 512">
  <defs>
    <style>
      .cls-1 {
        fill: #f7931e;
      }
    </style>
  </defs>
  <path class="cls-1" d="M305.25,488.22c0-2.31-44.36-.85-44.36-.85v1.7s0,1.7,0,1.7c0,0,44.36,0,44.36-2.54Z"/>
  <path d="M305.25,488.22c0,2.54-44.36,2.54-44.36,2.54v-1.7s0-1.7,0-1.7c0,0,44.36-1.46,44.36.85M308.94,488.22c0-1.06-.43-2.07-1.21-2.82-1.3-1.26-2.42-2.34-25.54-2.15-10.72.09-21.32.43-21.43.44-1.99.07-3.57,1.7-3.57,3.69h0s0,1.7,0,1.7v1.69h0c0,.98.39,1.92,1.08,2.61.69.69,1.63,1.08,2.61,1.08.11,0,11.27,0,22.29-.32,6.51-.19,11.71-.44,15.46-.77,5.3-.46,10.31-.89,10.31-5.15h0Z"/>
  <path class="cls-1" d="M256,19.41c-27.63,0-27.5,91.4-26.74,120.7,0,0,0,0,0,0v.12c.04,1.31.07,2.49.11,3.54v.06s0,0,0,0c.11,3.32.2,5.21.2,5.21,0,0,.05.26.13.73l-84.14,114.78v-.46c0-.98-.24-1.95-.71-2.82v-40.64c0-1.35-.29-2.68-.84-3.91h0c-.56,1.23-.85,2.56-.85,3.91v40.64s0,.02,0,.02c-.45.86-.69,1.81-.69,2.78v4.7s-95.33,130.05-95.33,130.05v21.06l-9.82,15.85h0c-.96,1.56-1.36,6.46-1.36,10.19,0,4.49,2.02,28.21,2.02,28.21l11.38-8.89h1.4s174.16,0,174.16,0h.18s.18,0,.18,0v-23.45h-.18v-7.08s4.88,0,4.88,0c0,.25,0,.39,0,.39,0,0,1.01,4.56,17.14,5.81v7.42h0v-5.39h-.14s0-.66,0-.66l-1.11-.4s0,0,0,0h-1.24s-.5,0-.5,0h-1s-.5,0-.5,0h-1.51s-.5,0-.5,0h-2s-.14,0-.14,0c-.59-.41-1.21-.81-1.86-1.19-3.01-1.76-5.72-2.64-7.43-2.41-.93.12-1.62.54-2.04,1.23-.75,1.22-.47,2.99-.24,3.92-.36.22-.56.65-.43,1.07l.09.29,1.23,4.24h0c-.85,0-1.54.69-1.54,1.54,0,.85.69,1.54,1.54,1.54h.9v1.19c0,3.6,1.65,4.69,1.65,4.69h2.29c.21.45.39.58.39.58h3.12,0s.5,0,.5,0h2.49,0s.5,0,.5,0h.5s.5,0,.5,0h0s.5,0,.5,0h1.51s.5,0,.5,0h2,0s.71,0,.71,0h.03s0-.01,0-.01l1.12-.57v-.49s.14,0,.14,0v-5.66s0,0,0,0v12.56h0v-3.71h-.14v-.66s-1.11-.4-1.11-.4c0,0,0,0,0,0h-1.74s-.5,0-.5,0h-2.51s-.5,0-.5,0h-1s-.5,0-.5,0h-1s-.5,0-.5,0h-1.99s0,0,0,0h-.03c-2.34-.89-4.67-1.52-6.24-1.73-1.06-.14-1.82.08-2.25.64-.59.76-.41,1.93-.22,2.65-.35.22-.54.65-.42,1.07l.09.32,1.22,4.22h0c-.85,0-1.54.69-1.54,1.54h0c0,.85.69,1.54,1.54,1.54h.9v1.19c0,3.6,1.65,4.69,1.65,4.69h2.29c.21.45.39.58.39.58h8.61s.35,0,.35,0h2.8c0,1.34,0,2.56,0,3.51-1.36.3-2.29.71-2.29,1.25,0,.32.02.62.02.94,0,.91,1.62,1.5,3.74,1.88h0s.46,1.21,2.69,2.17v.06s.47.85.47.85h.7s.7,0,.7,0l.14-.26c.06.01.13.02.19.04v.64s-44.36-1.46-44.36.85c0,2.54,44.36,2.54,44.36,2.54v.8s.11,1.03,4.88,1.03,4.88-1.03,4.88-1.03v-4.83c4.15-.92,4.89-2.86,4.89-2.86h0c2.12-.38,3.74-.97,3.74-1.88,0-.32.02-.62.02-.94,0-.82-2.09-1.32-4.63-1.63v-4.21h.14s0,.49,0,.49l1.12.57s0,.01,0,.01h.03s.71,0,.71,0h.09s.41,0,.41,0h.5s.5,0,.5,0h2s.51,0,.51,0h0s.5,0,.5,0h.5s.5,0,.5,0h1s.5,0,.5,0h.5s.49,0,.49,0h.5s.5,0,.5,0h.5s.5,0,.5,0h.5s.5,0,.5,0h1.12s.18-.13.39-.58h2.29s1.65-1.09,1.65-4.69v-1.19h.9c.85,0,1.54-.69,1.54-1.54,0-.85-.69-1.54-1.54-1.54h0l1.24-4.26.08-.28c.12-.42-.07-.84-.42-1.07.19-.72.37-1.89-.22-2.65-.44-.56-1.2-.78-2.25-.64-1.58.21-3.9.84-6.24,1.73h-.53s-.5,0-.5,0h0s-.5,0-.5,0h-.99s-.5,0-.5,0h-.5s-.5,0-.5,0h-.5s-.5,0-.5,0h-.5s-.51,0-.51,0h-2.5s-.5,0-.5,0h-.5s-.71,0-.71,0h0s-.03,0-.03,0c0,0,0,0,0,0l-1.11.4v.66h-.14v-3.19h.14s0,.49,0,.49l1.12.57s0,.01,0,.01h2.23s.5,0,.5,0h1s0,0,0,0h1.01s.5,0,.5,0h3s.49,0,.49,0h.5s.5,0,.5,0h3.12s.18-.13.39-.58h2.29s1.65-1.09,1.65-4.69v-1.19h.9c.85,0,1.54-.69,1.54-1.54,0-.85-.69-1.54-1.54-1.54h0l1.22-4.22.09-.32c.12-.43-.07-.85-.43-1.07.23-.94.51-2.7-.24-3.92-.43-.69-1.11-1.1-2.04-1.23-1.72-.23-4.43.65-7.43,2.41-.65.38-1.27.78-1.86,1.19h-.14s-.5,0-.5,0h-.5s-.5,0-.5,0h-1.51s-.5,0-.5,0h-2s-.5,0-.5,0h-1.2s-.03,0-.03,0c0,0,0,0,0,0l-1.11.4v.66h-.14v-2.03c16.13-1.25,17.14-5.81,17.14-5.81,0,0,0-.14,0-.39h4.88v7.08h-.18v23.45s.37,0,.37,0h87.98s85.99,0,85.99,0h1.58s11.38,8.89,11.38,8.89c0,0,2.02-23.72,2.02-28.21,0-3.73-.41-8.63-1.36-10.18h0s-9.82-15.86-9.82-15.86v-21.06l-96.03-131v-17.1c0-.77-.3-1.5-.85-2.05h0c-.54.54-.84,1.28-.84,2.05v14.8s-84.85-115.74-84.85-115.74c.08-.47.13-.73.13-.73,0,0,.09-1.9.2-5.21,0,0,0,0,0,0v-.06c.04-1.05.07-2.23.1-3.54v-.12s0,0,0,0c.75-29.3.89-120.7-26.74-120.7ZM228.3,443.95h0c-.03-.12-.09-.21-.15-.3.35-.21.88-.47,1.66-.7-.36.47-.82,1.31-1.03,2.66l-.48-1.66s0,0,0,0ZM227.59,439.77c.34-.55.88-.87,1.65-.97,1.58-.21,4.22.66,7.08,2.34.39.23.78.47,1.15.72h-1.86s-.5,0-.5,0h-1s-.5,0-.5,0h-.62s-.02.02-.06.06c-.4,0-.79.03-1.18.08-2.27.3-3.49.89-4.11,1.32-.08-.02-.15-.04-.23-.05-.21-.86-.47-2.45.18-3.49ZM228.3,461.69h0c-.07-.26-.24-.45-.45-.57.05-.06.09-.12.16-.18.31-.27.91-.55,2.05-.54-.37.37-1.02,1.26-1.28,2.95l-.48-1.66s0,0,0,0ZM227.52,458.84c.31-.4.9-.54,1.75-.43,1.19.16,2.88.58,4.67,1.19h-.32s-.62,0-.62,0c0,0-.18.13-.38.57-.65-.12-1.22-.21-1.65-.26-1.55-.17-2.67.04-3.33.64-.12.1-.19.21-.27.32-.15-.66-.23-1.52.16-2.02ZM284.15,461.12c-.21.12-.37.31-.45.56h0s0,0,0,0l-.48,1.66c-.26-1.69-.91-2.58-1.28-2.95,1.14,0,1.74.27,2.05.54.07.06.11.12.16.18ZM283.33,468.6v.25-.25ZM283.33,467.93h0s0,0,0,0ZM284.48,458.84c.39.5.31,1.36.16,2.02-.07-.11-.15-.21-.27-.32-.67-.6-1.79-.81-3.34-.64-.43.05-1,.14-1.65.26-.2-.44-.38-.57-.38-.57h-.95c1.79-.6,3.48-1.03,4.67-1.19.85-.11,1.44.03,1.75.43ZM283.71,443.94h0s0,0,0,0l-.48,1.66c-.21-1.35-.66-2.19-1.03-2.66.79.23,1.31.48,1.66.7-.06.09-.12.18-.15.29ZM282.76,438.8c.77.1,1.31.42,1.65.97.64,1.04.38,2.64.18,3.49-.08,0-.15.02-.23.05-.62-.42-1.84-1.01-4.11-1.32-.39-.05-.78-.07-1.18-.08-.04-.04-.06-.06-.06-.06h-2.12s-.5,0-.5,0h-1s-.5,0-.5,0h-.37c.38-.25.76-.49,1.15-.72,2.86-1.67,5.51-2.55,7.08-2.34Z"/>
  <path d="M476.06,445.92c0,4.49-2.02,28.21-2.02,28.21l-11.38-8.89h-1.58s-85.99,0-85.99,0h-88.35v-23.45h.18v-7.08s-4.87,0-4.87,0c0,.25,0,.39,0,.39,0,0-1.01,4.56-17.14,5.81v2.03h.14v-.66l1.11-.4s0,0,0,0h7.38c.59-.41,1.21-.81,1.86-1.19,3.01-1.76,5.72-2.64,7.43-2.41.93.12,1.62.54,2.04,1.23.37.6.49,1.33.49,2.03s-.13,1.42-.25,1.9c.29.18.47.48.47.82,0,.09-.01.17-.04.26l-.09.32-1.22,4.22h0c.85,0,1.54.69,1.54,1.54s-.69,1.54-1.54,1.54h-.9v1.19c0,3.6-1.65,4.69-1.65,4.69h-2.29c-.21.45-.39.58-.39.58h-12.85s0-.01,0-.01l-1.12-.57v-.49h-.14v3.19h.14v-.66l1.11-.4s0,0,0,0h10.26c2.34-.89,4.67-1.52,6.24-1.73,1.06-.14,1.82.07,2.25.64.3.39.4.89.4,1.38,0,.46-.09.92-.18,1.27.28.18.45.48.45.81,0,.09-.01.17-.04.26l-.08.28-1.24,4.26h0c.85,0,1.54.69,1.54,1.54s-.69,1.54-1.54,1.54h-.9v1.19h0c0,3.6-1.65,4.69-1.65,4.69h-2.29c-.21.45-.39.58-.39.58h-12.85s0-.01,0-.01l-1.12-.57v-.49h-.14v4.21c2.54.31,4.63.82,4.63,1.63,0,.32-.02.62-.02.94,0,.91-1.62,1.5-3.74,1.88h0s-.73,1.94-4.89,2.86v4.83s-.11,1.03-4.88,1.03-4.89-1.03-4.89-1.03v-.8s-44.36,0-44.36-2.54c0-2.31,44.36-.85,44.36-.85v-.64c-.06-.01-.13-.02-.19-.04l-.14.26h-.7s-.7,0-.7,0l-.47-.85v-.06c-2.23-.96-2.69-2.17-2.69-2.17h0c-2.12-.38-3.74-.97-3.74-1.88,0-.32-.02-.62-.02-.94,0-.54.93-.95,2.29-1.25v-3.51h-11.76s-.18-.13-.39-.58h-2.29s-1.65-1.09-1.65-4.69v-1.19h-.9c-.85,0-1.54-.69-1.54-1.54,0-.85.69-1.54,1.54-1.54h0l-1.22-4.22-.09-.32c-.03-.09-.04-.17-.04-.26,0-.33.18-.63.45-.81-.09-.35-.18-.81-.18-1.27s.1-.99.4-1.38c.44-.56,1.2-.78,2.25-.64,1.58.21,3.9.84,6.24,1.73h10.26s0,0,0,0l1.11.4v.66s.14,0,.14,0v3.71s0-3.71,0-3.71v-8.85s0,5.66,0,5.66h-.14v.49s-1.12.57-1.12.57c0,0,0,.01,0,.01h-.74,0-4.01s-.5,0-.5,0h-4.49,0-3.12s-.18-.13-.39-.58h-2.29s-1.65-1.09-1.65-4.69v-1.19h-.9c-.85,0-1.54-.69-1.54-1.54s.69-1.54,1.54-1.54h0l-1.23-4.24-.09-.29c-.03-.09-.04-.17-.04-.26,0-.33.18-.64.47-.81-.12-.48-.25-1.17-.25-1.9s.12-1.43.49-2.03c.43-.69,1.11-1.1,2.04-1.23,1.72-.23,4.43.65,7.43,2.41.65.38,1.27.78,1.86,1.19h7.38s0,0,0,0l1.11.4v.66h.14v5.39-7.42c-16.13-1.25-17.14-5.81-17.14-5.81,0,0,0-.14,0-.39h-4.88v7.08h.18v23.45H49.34l-11.38,8.89s-2.02-23.72-2.02-28.21c0-3.73.41-8.63,1.36-10.18h0s9.82-15.86,9.82-15.86v-21.06l95.33-130.05v-4.7c0-.97.24-1.92.69-2.78h0s0-40.66,0-40.66h0c0-1.35.29-2.68.85-3.91h0c.56,1.23.84,2.57.84,3.91v40.64c.47.86.71,1.83.71,2.81v.46s84.14-114.77,84.14-114.77c-.08-.47-.13-.73-.13-.73,0,0-.09-1.9-.2-5.21h0s0-.06,0-.06c-.03-1.05-.07-2.23-.1-3.54v-.12s0,0,0,0c-.11-4.26-.21-9.83-.21-16.24,0-37.7,3.33-104.47,26.95-104.47,23.62,0,26.95,66.77,26.95,104.47,0,6.41-.1,11.98-.21,16.23,0,0,0,0,0,0v.12c-.04,1.31-.07,2.49-.11,3.54v.06h0c-.11,3.31-.2,5.21-.2,5.21,0,0-.05.26-.13.73l84.85,115.74v-14.8c0-.77.3-1.5.84-2.05h0c.54.54.85,1.28.85,2.05v17.11s96.03,131,96.03,131v21.06l9.82,15.85h0c.96,1.57,1.36,6.46,1.36,10.19M274.52,441.85h4.48s.02.02.06.06c.4.01.79.03,1.18.08,2.27.3,3.49.89,4.11,1.32.08-.02.15-.04.23-.05.11-.45.23-1.1.23-1.77,0-.61-.1-1.23-.41-1.73-.34-.55-.88-.87-1.65-.97-1.58-.21-4.22.66-7.08,2.34-.39.23-.78.47-1.15.72M278.06,459.6h.95s.18.13.38.57c.65-.12,1.22-.21,1.65-.26,1.55-.17,2.67.04,3.34.64.12.11.19.21.27.32.07-.3.12-.65.12-.98,0-.39-.07-.77-.28-1.04-.31-.4-.9-.54-1.75-.43-1.2.16-2.88.58-4.67,1.19M281.94,460.4c.37.37,1.02,1.26,1.28,2.95l.48-1.66h0s0,0,0,0c.07-.25.24-.44.45-.56-.05-.06-.09-.12-.16-.18-.31-.27-.91-.55-2.05-.54M282.19,442.95c.36.47.82,1.31,1.03,2.66l.48-1.66h0s0,0,0,0c.03-.11.09-.2.15-.29-.35-.21-.88-.47-1.66-.7M283.33,468.6v.25-.25M283.33,467.93h0s0,0,0,0M227.19,441.49c0,.67.12,1.32.23,1.77.08,0,.15.02.23.05.62-.42,1.84-1.01,4.11-1.32.39-.05.78-.07,1.18-.08.04-.04.06-.06.06-.06h4.48c-.38-.25-.76-.49-1.15-.72-2.86-1.67-5.51-2.55-7.08-2.34-.77.1-1.31.42-1.65.97-.31.5-.41,1.12-.41,1.73M227.24,459.88c0,.33.05.68.12.98.07-.11.15-.21.27-.32.67-.6,1.79-.81,3.34-.64.43.05,1,.14,1.65.26.2-.44.38-.57.38-.57h.95c-1.79-.6-3.48-1.03-4.67-1.19-.85-.11-1.44.03-1.75.43-.21.27-.28.65-.28,1.04M227.85,461.12c.21.12.37.31.45.56h0s0,0,0,0l.48,1.66c.26-1.69.91-2.58,1.28-2.95-1.14,0-1.74.27-2.05.54-.07.06-.11.12-.16.18M228.14,443.65c.06.09.12.18.15.29h0s0,0,0,0l.48,1.66c.21-1.35.66-2.18,1.03-2.66-.79.23-1.31.48-1.66.7M479.75,445.92c0-2.61-.17-8.84-1.73-11.8-.06-.12-.12-.23-.18-.34l-9.27-14.95v-1s0-19.01,0-19.01c0-.78-.25-1.55-.71-2.18l-95.32-130.02v-15.9c0-1.75-.68-3.4-1.92-4.65-.69-.7-1.63-1.09-2.61-1.09s-1.92.39-2.61,1.08c-1.25,1.25-1.93,2.9-1.93,4.66v3.53l-77.32-105.48c.03-.76.11-2.42.18-4.81.04-1.11.07-2.3.11-3.62v-.1s0-.05,0-.07c.14-5.33.21-10.8.21-16.28,0-18.51-.81-45.16-4.67-67.01-4.9-27.69-13.39-41.14-25.96-41.14-12.57,0-21.07,13.46-25.96,41.14-3.86,21.85-4.68,48.5-4.68,67.01,0,5.47.07,10.94.2,16.26,0,.03,0,.06,0,.09v.12c.04,1.31.07,2.5.11,3.55.08,2.43.15,4.11.18,4.87l-77.32,105.48v-33.61c0-1.87-.39-3.69-1.16-5.4-.56-1.27-1.79-2.13-3.19-2.19-1.51-.07-2.92.78-3.54,2.16-.78,1.72-1.17,3.55-1.17,5.43v39.84c-.46,1.14-.7,2.37-.7,3.6v3.5l-94.62,129.07c-.46.63-.71,1.4-.71,2.18v20.01l-9.27,14.95c-.07.11-.13.23-.19.34-1.56,2.96-1.73,9.18-1.73,11.79,0,4.59,1.95,27.54,2.03,28.52.11,1.35.96,2.53,2.2,3.07,1.24.54,2.68.36,3.75-.47l10.38-8.11h171.97c.2,1.64,1.16,3.05,2.51,3.87.51,4.04,2.71,5.69,3.2,6.01.6.4,1.31.61,2.03.61h.69c.59.38,1.28.58,1.99.58h5.91c-.08.34-.12.69-.12,1.07,0,.21,0,.4.01.6,0,.11,0,.22,0,.33,0,.5.07.96.2,1.37-2.88-.06-6.03-.1-9.19-.13-23.12-.19-24.24.9-25.54,2.15-.78.75-1.21,1.76-1.21,2.82,0,4.26,5.01,4.69,10.31,5.15,3.75.32,8.95.58,15.46.77,7.92.23,15.91.29,19.82.31,1.95,1.84,5.68,1.84,7.35,1.84,2.21,0,8.1,0,8.55-4.33.01-.13.02-.26.02-.39v-2.14c1.54-.67,2.6-1.47,3.31-2.22,2.16-.54,5.31-1.83,5.31-5.2,0-.11,0-.22,0-.33,0-.2.01-.4.01-.6,0-.39-.04-.74-.12-1.07h5.9c.71,0,1.4-.2,1.99-.58h.69c.72,0,1.43-.21,2.03-.61.49-.32,2.68-1.98,3.2-6.01,1.36-.81,2.32-2.22,2.51-3.87h171.65s.31,0,.31,0l10.38,8.11c1.07.83,2.51,1.02,3.75.47,1.24-.54,2.09-1.72,2.2-3.07.08-.98,2.03-23.93,2.03-28.52h0ZM282.23,464.1h0s0,0,0,0h0Z"/>
</svg>